<svg width="136" height="170" viewBox="0 0 136 170" fill="none" xmlns="http://www.w3.org/2000/svg">
<g opacity="0.2" clip-path="url(#clip0_760_3960)">
<g opacity="0.7">
<path d="M136 141.659C134.056 138.249 131.499 135.385 128.668 133.339C123.314 129.451 117.415 128.53 113.561 129.315C109.673 130.065 108.037 131.872 108.309 132.213C108.582 132.759 110.56 132.009 113.766 132.281C116.937 132.486 121.404 134.021 125.258 137.567C126.52 138.727 127.679 140.125 128.702 141.728C127.713 143.33 126.554 144.763 125.326 145.956C121.541 149.605 117.108 151.174 113.936 151.447C110.731 151.788 108.719 151.072 108.48 151.617C108.241 151.992 109.878 153.766 113.8 154.448C117.653 155.13 123.519 154.107 128.805 150.117C131.635 148.037 134.124 145.104 136 141.659Z" fill="#019444"/>
<path d="M90.9515 32.3971C87.1662 31.374 83.3468 31.1353 79.8684 31.6809C73.3208 32.704 68.5124 36.2506 66.3299 39.4903C64.1133 42.764 64.2497 45.1853 64.6589 45.2876C65.2045 45.4922 66.1253 43.5825 68.5806 41.4682C70.9678 39.388 75.1964 37.2736 80.4481 37.069C82.1532 37.0008 83.9947 37.1713 85.8362 37.5806C86.2795 39.4221 86.4841 41.2295 86.4159 42.9687C86.3136 48.2203 84.3016 52.4831 82.2555 54.9043C80.2094 57.3937 78.2997 58.3145 78.5384 58.8942C78.6407 59.3376 81.0619 59.4058 84.3016 57.1209C87.5072 54.9043 90.9515 50.0277 91.8722 43.4461C92.3497 40.0018 92.0768 36.1824 90.9515 32.3971Z" fill="#019444"/>
<path d="M125.428 85.2549C124.849 89.1425 123.519 92.7232 121.609 95.69C118.028 101.249 112.845 104.25 109.025 104.932C105.104 105.648 102.955 104.557 103.058 104.113C103.092 103.533 105.206 103.465 108.105 102.067C110.969 100.737 114.618 97.702 116.903 92.996C117.653 91.4614 118.233 89.7222 118.608 87.8466C117.108 86.7213 115.505 85.8005 113.936 85.1526C109.094 83.1405 104.353 83.2769 101.318 84.1636C98.2151 85.0161 96.6124 86.3802 96.169 85.971C95.828 85.6982 96.7147 83.4475 100.125 81.4354C103.467 79.3893 109.298 78.2299 115.675 80.0032C119.051 80.8898 122.427 82.7313 125.428 85.2549Z" fill="#019444"/>
<path d="M43.584 -6.29057e-05C45.937 3.17141 47.5398 6.6498 48.256 10.06C49.6541 16.5393 48.1196 22.3026 45.8688 25.5081C43.6181 28.7819 41.3333 29.5322 41.0946 29.157C40.7194 28.7137 42.1858 27.1791 43.2089 24.1441C44.3001 21.1772 44.7094 16.437 43.0043 11.4923C42.4586 9.85538 41.6402 8.21849 40.583 6.6498C38.7074 6.92262 36.9341 7.36595 35.3655 8.04799C30.523 10.06 27.2492 13.4702 25.7487 16.2665C24.18 19.0629 23.9754 21.1772 23.3957 21.1772C22.9524 21.2454 21.9975 19.0288 22.9524 15.1753C23.8731 11.39 27.181 6.41108 32.9442 3.17141C35.9793 1.43221 39.6623 0.340956 43.584 -6.29057e-05Z" fill="#019444"/>
<path d="M93.1681 116.39C87.0639 113.014 80.8574 109.194 75.7421 104.045C76.1854 96.8155 78.2997 89.8246 80.6528 83.2429C81.6758 80.4125 82.6989 77.6161 83.6878 74.8538C80.7551 74.6151 77.7882 74.4446 74.7872 74.24C67.8304 73.7285 60.5668 72.8759 53.7805 70.3524C51.1205 63.6002 50.1316 56.3706 49.4836 49.4139C49.3131 47.2654 49.1426 45.1511 48.938 43.0368C46.8919 43.6165 44.8799 44.2304 42.7997 44.8442C36.1157 46.788 28.9884 48.459 21.7247 48.4249C16.9164 43.0027 13.4721 36.5574 10.4711 30.2486C9.20934 27.5204 7.94756 24.8264 6.68579 22.1665C4.43507 24.0762 2.21845 26.0541 -0.0322732 28.032C-5.31806 32.6016 -11.0472 37.1031 -17.6288 40.1381C-24.2787 37.2395 -30.1101 32.8062 -35.4641 28.373C-37.101 26.9748 -38.7379 25.6108 -40.3407 24.2467C-41.3637 26.0882 -42.3868 27.9638 -43.4098 29.8394C-46.7859 35.9436 -50.6053 42.1501 -55.7547 47.2995C-62.9843 46.8562 -69.9752 44.7419 -76.5569 42.3889C-79.3873 41.3658 -82.1837 40.3428 -84.9459 39.3538C-85.1846 42.2866 -85.3552 45.2534 -85.5598 48.2544C-86.0713 55.2112 -86.9238 62.4749 -89.4474 69.2611C-96.1995 71.9211 -103.429 72.91 -110.386 73.558C-112.534 73.7285 -114.649 73.899 -116.763 74.1036C-116.183 76.1156 -115.569 78.1617 -114.956 80.2419C-113.046 86.96 -111.341 94.0532 -111.375 101.317C-116.797 106.125 -123.242 109.57 -129.551 112.571C-132.279 113.832 -134.973 115.094 -137.633 116.356C-135.724 118.607 -133.746 120.823 -131.768 123.108C-127.198 128.394 -122.697 134.123 -119.662 140.705C-122.56 147.354 -126.994 153.186 -131.427 158.54C-132.825 160.177 -134.189 161.814 -135.553 163.416C-133.712 164.439 -131.836 165.463 -129.96 166.486C-123.856 169.862 -117.65 173.715 -112.534 178.83C-112.978 186.06 -115.092 193.051 -117.445 199.633C-118.468 202.463 -119.491 205.259 -120.48 208.022C-117.547 208.26 -114.58 208.431 -111.579 208.635C-104.623 209.147 -97.359 210 -90.5727 212.523C-87.9128 219.275 -86.9238 226.505 -86.2759 233.462C-86.1054 235.61 -85.9349 237.724 -85.7303 239.839C-83.6842 239.259 -81.6722 238.645 -79.5919 238.031C-72.908 236.122 -65.7807 234.416 -58.517 234.451C-53.7086 239.873 -50.2643 246.318 -47.2634 252.627C-46.0016 255.355 -44.7398 258.049 -43.4781 260.709C-41.2273 258.799 -39.0107 256.821 -36.76 254.844C-31.4742 250.274 -25.7451 245.772 -19.1634 242.737C-12.5136 245.636 -6.68214 250.035 -1.32815 254.502C0.30874 255.901 1.94563 257.265 3.54841 258.629C4.57147 256.787 5.59454 254.912 6.61759 253.036C9.99368 246.932 13.8131 240.725 18.9625 235.61C26.1921 236.053 33.1829 238.168 39.7646 240.521C42.595 241.544 45.3914 242.567 48.1537 243.556C48.3924 240.623 48.5629 237.656 48.7675 234.655C49.279 227.698 50.1316 220.435 52.6551 213.648C59.4073 210.989 66.6369 210 73.5937 209.352C75.7421 209.181 77.8564 209.011 79.9707 208.806C79.391 206.794 78.7771 204.748 78.1633 202.668C76.2536 195.95 74.5485 188.856 74.5826 181.593C80.0048 176.784 86.4501 173.34 92.7589 170.339C95.4871 169.077 98.1811 167.816 100.841 166.554C98.9314 164.303 96.9534 162.086 94.9755 159.836C90.4059 154.55 85.9044 148.821 82.8694 142.205C85.768 135.555 90.2013 129.724 94.6345 124.37C96.0327 122.733 97.3968 121.096 98.7608 119.493C96.9193 118.436 95.0437 117.413 93.1681 116.39ZM96.476 171.226C90.0308 174.67 83.5173 178.319 78.2997 183.195C78.1292 190.357 79.6638 197.655 81.3348 204.748C81.8122 206.692 82.2896 208.635 82.733 210.579C80.755 210.886 78.7771 211.159 76.7992 211.398C69.5696 212.387 62.2036 213.614 55.5879 216.377C52.962 223.026 51.8708 230.427 51.0182 237.656C50.7113 240.487 50.3703 243.351 49.9611 246.148C47.2329 245.397 44.5048 244.579 41.7766 243.726C34.7857 241.612 27.5902 239.6 20.4629 239.327C15.2795 244.272 11.1872 250.513 7.36782 256.719C6.34476 258.424 5.28761 260.129 4.23045 261.8C2.62766 260.607 1.02487 259.413 -0.543811 258.185C-6.37523 253.786 -12.4454 249.421 -19.0611 246.693C-25.6428 249.524 -31.6106 253.991 -37.3397 258.527C-39.5905 260.3 -41.8071 262.073 -44.0919 263.778C-45.4901 261.323 -46.8201 258.799 -48.15 256.276C-51.5943 249.831 -55.2432 243.317 -60.1198 238.099C-67.2812 237.895 -74.579 239.464 -81.6722 241.135C-83.616 241.612 -85.5598 242.089 -87.5036 242.499C-87.8105 240.521 -88.0833 238.543 -88.322 236.565C-89.311 229.335 -90.5386 221.969 -93.3009 215.354C-99.9508 212.728 -107.351 211.636 -114.58 210.784C-117.411 210.477 -120.275 210.136 -123.072 209.727C-122.322 206.999 -121.503 204.27 -120.616 201.542C-118.502 194.551 -116.49 187.356 -116.217 180.195C-121.128 175.011 -127.403 170.919 -133.609 167.099C-135.314 166.076 -137.019 165.019 -138.69 163.962C-137.497 162.359 -136.303 160.756 -135.076 159.188C-130.677 153.356 -126.312 147.286 -123.583 140.67C-126.414 134.089 -130.881 128.121 -135.417 122.392C-137.224 120.175 -138.963 117.925 -140.668 115.64C-138.213 114.242 -135.69 112.877 -133.132 111.582C-126.687 108.137 -120.173 104.488 -114.956 99.6118C-114.751 92.4504 -116.32 85.1526 -117.991 78.0594C-118.468 76.1156 -118.945 74.1718 -119.355 72.228C-117.377 71.9211 -115.399 71.6483 -113.421 71.4096C-106.191 70.3865 -98.8254 69.1929 -92.2096 66.4307C-89.5838 59.7808 -88.4925 52.3807 -87.64 45.1511C-87.3331 42.3207 -86.992 39.4561 -86.5828 36.6597C-83.8547 37.41 -81.1265 38.2284 -78.3984 39.1151C-71.4075 41.2294 -64.212 43.2414 -57.0506 43.5142C-51.8671 38.5695 -47.7749 32.3288 -43.9555 26.1223C-42.9324 24.4172 -41.8753 22.7121 -40.8181 21.0411C-39.2153 22.2347 -37.6125 23.4282 -36.0439 24.6559C-30.2124 29.055 -24.1423 33.4201 -17.5265 36.1141C-10.9449 33.2837 -4.97704 28.8163 0.752076 24.3149C2.9687 22.5075 5.21942 20.7683 7.50424 19.0632C8.90242 21.5185 10.2324 24.0421 11.5624 26.5997C15.0067 33.0449 18.6556 39.5584 23.5321 44.776C30.6935 44.9806 37.9913 43.4119 45.0845 41.7409C47.0283 41.2635 48.9721 40.7861 50.9159 40.3769C51.2228 42.3207 51.4957 44.3327 51.7344 46.3106C52.7574 53.5402 53.951 60.9062 56.7132 67.5219C63.3631 70.1819 70.7632 71.2391 77.9928 72.0916C80.8574 72.3985 83.6878 72.7395 86.4842 73.1488C85.7339 75.8769 84.9155 78.6051 84.0288 81.3332C81.9145 88.3241 79.9025 95.5196 79.6297 102.681C84.5404 107.864 90.8151 111.957 97.0216 115.776C98.7267 116.799 100.432 117.856 102.103 118.913C100.943 120.516 99.7157 122.119 98.488 123.688C94.0889 129.519 89.7239 135.589 87.0298 142.205C89.8603 148.787 94.3276 154.755 98.8632 160.484C100.671 162.734 102.41 164.985 104.115 167.236C101.523 168.566 98.9996 169.896 96.476 171.226Z" fill="#019444"/>
<path d="M110.56 117.242C110.662 120.277 111.583 122.903 113.049 123.074C114.993 123.313 117.142 119.527 118.199 115.81C115.88 112.741 112.504 110.013 110.765 110.899C109.469 111.616 109.537 114.378 110.56 117.242Z" fill="#019444"/>
<path d="M55.6901 33.1469C57.9068 35.2272 60.4303 36.4207 61.5557 35.5C63.0903 34.2723 61.9308 30.1119 60.0552 26.7358C56.2358 26.2243 51.9048 26.6676 51.3592 28.5091C50.9159 29.9073 52.9279 31.817 55.6901 33.1469Z" fill="#019444"/>
<path d="M111.106 168.668C110.662 164.848 111.617 160.927 113.391 160.688C115.505 160.415 117.926 164.883 118.949 168.838C119.051 169.248 119.154 169.759 119.222 170.373C118.915 170.885 118.608 171.328 118.369 171.669C115.846 174.874 111.822 178.012 110.014 176.886C108.446 175.932 109.196 171.976 111.106 168.668Z" fill="#019444"/>
<path d="M92.4519 69.0904C89.451 66.7033 87.3367 63.2931 88.4279 61.8608C89.7238 60.1557 94.6004 61.6221 98.1129 63.7023C98.4539 63.9069 98.8972 64.2139 99.3746 64.589C99.511 65.2028 99.6133 65.7144 99.6815 66.1236C100.159 70.1817 99.511 75.2288 97.4649 75.7403C95.6916 76.1154 93.4068 72.8075 92.4519 69.0904Z" fill="#019444"/>
<path d="M8.83416 11.9015C5.01475 12.3448 1.12713 11.39 0.854312 9.61666C0.581497 7.50234 5.04885 5.08111 9.00467 4.05806C9.41389 3.95575 9.92542 3.85345 10.5393 3.78525C11.0508 4.09216 11.4941 4.39908 11.8351 4.63779C15.0407 7.16133 18.1781 11.1854 17.0527 12.9928C16.0978 14.5614 12.1761 13.8453 8.83416 11.9015Z" fill="#019444"/>
<path d="M55.9289 127.473C54.8376 128.121 54.2238 128.769 54.292 129.383C54.3943 130.406 56.8496 131.156 60.3962 131.122C63.9428 131.19 68.4442 130.235 72.3318 128.701C74.6849 127.814 78.6407 125.597 82.8693 122.426C77.7882 121.028 73.2867 120.38 70.7973 120.414C66.6027 120.38 62.0672 121.13 58.7934 122.46C55.4855 123.688 53.4735 125.324 53.7463 126.279C53.8486 126.893 54.6671 127.268 55.9289 127.473Z" fill="#019444"/>
<path d="M24.2824 79.0142C24.0096 80.2419 23.9755 81.1286 24.4529 81.5037C25.2372 82.1516 27.5221 80.958 29.9774 78.4345C32.535 75.9792 35.0245 72.1257 36.6954 68.2722C37.7185 65.9873 38.9462 61.6223 39.7305 56.4047C35.1268 58.9964 31.512 61.7246 29.7728 63.532C26.8059 66.4647 24.1119 70.216 22.7478 73.4897C21.3155 76.6953 21.0086 79.253 21.8952 79.7645C22.4409 80.0373 23.2593 79.7304 24.2824 79.0142Z" fill="#019444"/>
<path d="M55.656 157.005C54.9058 156.494 54.4965 155.982 54.5307 155.505C54.5989 154.482 57.0542 153.663 60.6008 153.629C64.1133 153.493 68.6488 154.379 72.5705 155.846C75.2305 156.8 80.0047 159.392 84.9154 163.177C78.9135 164.644 73.4913 165.087 70.6608 164.917C66.4663 164.678 61.999 163.655 58.8275 162.12C55.6219 160.654 53.7122 158.949 54.0532 157.994C54.1555 157.448 54.7353 157.176 55.656 157.005Z" fill="#019444"/>
<path d="M44.9821 100.089C44.0955 100.26 43.4476 100.191 43.1065 99.8163C42.4586 99.0319 43.618 96.7471 46.0734 94.2236C48.4605 91.6318 52.2799 89.0401 56.0993 87.3009C58.657 86.1073 63.8746 84.5727 70.0129 83.7543C66.8073 89.0401 63.2948 93.2005 61.1464 95.042C58.009 97.8384 54.1214 100.26 50.7795 101.419C47.4716 102.647 44.9139 102.783 44.4706 101.862C44.266 101.453 44.4706 100.839 44.9821 100.089Z" fill="#019444"/>
<path d="M108.071 117.72C105.922 120.278 102.376 124.097 99.7156 128.428C96.8852 132.759 95.0778 137.499 94.7709 139.75C94.6345 140.5 94.6004 141.284 94.6345 142.069C94.6345 142.819 94.7027 143.603 94.805 144.354C95.146 146.604 97.0557 151.31 99.9543 155.573C102.785 159.938 106.468 163.758 108.65 166.281C106.809 164.065 104.626 159.188 103.671 154.38C102.614 149.571 102.682 145.002 102.41 143.126C102.341 142.751 102.273 142.342 102.171 141.966C102.239 141.557 102.307 141.182 102.376 140.807C102.614 138.931 102.478 134.362 103.433 129.519C104.319 124.847 106.297 120.005 108.071 117.72C105.581 116.22 101.966 112.434 99.4769 108.376C96.8511 104.216 95.3165 99.9189 94.3957 98.2479C94.1911 97.9069 93.9865 97.5659 93.7819 97.2248C93.7137 96.8156 93.6455 96.4405 93.5773 96.0654C93.1681 94.2239 91.463 89.9952 90.6787 85.1187C89.8602 80.3103 90.0989 74.9563 91.0197 72.2282C89.9284 75.3655 87.8482 80.2762 86.791 85.3574C85.6657 90.4045 85.5634 95.4856 86.0408 97.7023C86.1772 98.4525 86.4159 99.2027 86.6887 99.9189C86.9615 100.635 87.2685 101.351 87.6436 101.999C88.7348 103.977 92.145 107.728 96.3736 110.763C100.466 113.798 105.138 116.083 108.071 117.72Z" fill="#019444"/>
<path d="M54.2579 35.2273C54.5648 38.5693 54.7694 43.7528 55.9289 48.7317C57.0201 53.7788 59.0663 58.4166 60.4303 60.224C60.8737 60.8379 61.3852 61.4176 61.9649 61.9632C62.5105 62.5088 63.0903 63.0204 63.7382 63.4637C65.5797 64.7937 70.2517 66.7716 75.3328 67.7605C80.414 68.8518 85.7339 68.92 89.0759 69.1928C86.2113 68.9541 81.1984 67.0103 77.1402 64.2821C72.9798 61.6222 69.8083 58.3484 68.2738 57.223C67.9668 57.0184 67.6258 56.7797 67.2848 56.5751C67.0461 56.2341 66.8415 55.9272 66.6028 55.5862C65.4433 54.0857 62.1354 50.9483 59.3732 46.8561C56.645 42.9344 54.633 38.0919 54.2579 35.2273C51.4274 35.9094 46.2099 35.8071 41.572 34.6817C36.7636 33.6246 32.6373 31.6466 30.8299 31.101C30.4548 30.9987 30.0797 30.8964 29.6704 30.8282C29.3635 30.5895 29.0225 30.3508 28.7156 30.1462C27.1128 29.1231 22.9183 27.3498 18.9284 24.4512C14.9384 21.6207 11.3236 17.699 10.0278 15.1072C11.4601 18.1082 13.4721 23.053 16.3366 27.3839C19.0989 31.783 22.6114 35.432 24.5211 36.6255C25.169 37.0347 25.851 37.4099 26.5672 37.7168C27.2492 38.0578 27.9994 38.3306 28.7497 38.5011C30.9322 39.1491 36.0134 39.3537 41.1287 38.5352C46.1075 37.8532 51.0523 36.1481 54.2579 35.2273Z" fill="#019444"/>
<path d="M87.78 214.092C84.438 214.399 79.2545 214.603 74.2756 215.763C69.2286 216.854 64.5566 218.9 62.7833 220.264C62.1695 220.708 61.5897 221.219 61.0441 221.799C60.4985 222.344 59.9869 222.924 59.5436 223.572C58.2137 225.414 56.2358 230.086 55.2468 235.167C54.1555 240.248 54.0873 245.568 53.8145 248.91C54.0532 246.045 55.997 241.032 58.6911 236.974C61.351 232.848 64.6248 229.642 65.7502 228.108C65.9889 227.801 66.1935 227.46 66.3981 227.119C66.7391 226.914 67.0801 226.675 67.3871 226.437C68.8875 225.277 72.0249 221.935 76.1171 219.207C80.073 216.445 84.9154 214.467 87.78 214.092C87.098 211.261 87.2003 206.044 88.3256 201.406C89.3828 196.598 91.3607 192.505 91.9063 190.664C92.0086 190.289 92.1109 189.914 92.1791 189.504C92.4178 189.163 92.6565 188.856 92.8612 188.515C93.8842 186.913 95.6575 182.718 98.5562 178.728C101.387 174.738 105.308 171.123 107.9 169.828C104.899 171.26 99.9544 173.272 95.6234 176.136C91.2584 178.899 87.5754 182.411 86.3818 184.355C85.9726 185.003 85.5975 185.685 85.2905 186.401C84.9495 187.083 84.6767 187.833 84.5062 188.549C83.8583 190.732 83.6537 195.813 84.4721 200.894C85.1882 205.941 86.8592 210.852 87.78 214.092Z" fill="#019444"/>
<path d="M64.1815 142.341C65.7161 141.421 67.2506 140.466 68.7511 139.443C76.6286 134.327 83.9947 128.087 88.121 124.881C83.2103 128.632 74.7189 133.168 66.364 136.305C58.1454 139.511 50.1997 141.352 46.5849 142.512C50.1997 143.603 58.1796 145.308 66.4663 148.343C74.8554 151.31 83.449 155.709 88.4279 159.358C84.2334 156.221 76.7651 150.117 68.7852 145.138C67.2847 144.149 65.7161 143.228 64.1815 142.341Z" fill="#019444"/>
<path d="M40.6512 83.686C41.0945 81.9809 41.5037 80.2076 41.8448 78.4002C43.7886 69.1927 44.5729 59.6101 45.2549 54.3925C44.4365 60.5308 41.6401 69.7383 37.9571 77.8546C34.4105 85.9367 30.1137 92.8594 28.3745 96.2355C31.7165 94.4281 38.5369 89.9948 46.5508 86.3118C54.5647 82.4924 63.7382 79.4915 69.8765 78.5707C64.6589 79.321 55.1104 80.2758 45.937 82.4242C44.1296 82.7652 42.3563 83.2086 40.6512 83.686Z" fill="#019444"/>
<path d="M58.2478 110.627C59.987 110.934 61.7944 111.275 63.5677 111.65C72.7752 113.559 81.8804 116.697 86.8934 118.197C80.9596 116.492 71.377 115.333 62.4764 115.435C53.644 115.435 45.596 116.594 41.8107 116.799C44.8116 114.48 51.632 110.013 58.2137 104.147C64.9659 98.35 71.377 91.1545 74.6849 85.9369C71.8885 90.4042 67.1484 98.7592 61.5216 106.296C60.4644 107.83 59.339 109.263 58.2478 110.627Z" fill="#019444"/>
<path d="M57.5657 173.851C58.5888 175.284 59.6118 176.784 60.6008 178.319C65.7502 186.162 69.9788 194.824 72.4682 199.462C69.4673 194.04 63.5336 186.469 57.1565 180.262C50.9159 174.022 44.4024 169.145 41.572 166.622C45.3232 167.099 53.303 168.736 62.1013 169.282C70.9678 169.964 80.6186 169.384 86.6546 168.054C81.5393 169.248 72.2636 171.805 62.9538 173.135C61.1123 173.442 59.3049 173.681 57.5657 173.851Z" fill="#019444"/>
<path d="M14.0177 65.4758C15.4499 64.4527 16.9504 63.4297 18.485 62.4407C26.3626 57.2913 34.9903 53.0627 39.6282 50.5732C34.206 53.5742 26.6354 59.5079 20.4288 65.885C14.1882 72.1256 9.31162 78.6391 6.78809 81.4695C7.26551 77.7183 8.9365 69.7385 9.44803 60.9402C10.1301 52.0737 9.55032 42.4229 8.22035 36.3869C9.41391 41.5021 11.9716 50.7779 13.3015 60.0877C13.6085 61.8951 13.8472 63.7025 14.0177 65.4758Z" fill="#019444"/>
</g>
</g>
<defs>
<clipPath id="clip0_760_3960">
<rect width="170" height="136" fill="white" transform="translate(0 170) rotate(-90)"/>
</clipPath>
</defs>
</svg>
