<svg width="144" height="166" viewBox="0 0 144 166" fill="none" xmlns="http://www.w3.org/2000/svg">
<g clip-path="url(#clip0_760_3925)">
<g opacity="0.7">
<path d="M1.89707e-05 24.6028C1.94383 28.013 4.50146 30.8776 7.33192 32.9237C12.6859 36.8113 18.5855 37.7321 22.439 36.9477C26.3267 36.1975 27.9636 34.3901 27.6907 34.0491C27.4179 33.5034 25.44 34.2537 22.2344 33.9809C19.063 33.7762 14.5956 32.2417 10.7421 28.6951C9.48034 27.5356 8.32086 26.1374 7.29781 24.5346C8.28676 22.9319 9.44623 21.4996 10.6739 20.306C14.4592 16.6571 18.8925 15.0884 22.0639 14.8156C25.2695 14.4746 27.2815 15.1907 27.5202 14.6451C27.7589 14.27 26.122 12.4967 22.2003 11.8146C18.3468 11.1326 12.4813 12.1557 7.1955 16.1456C4.36505 18.2258 1.87562 21.1585 1.89707e-05 24.6028Z" fill="#BCE2CD"/>
<path d="M45.0486 133.865C48.8339 134.888 52.6533 135.127 56.1317 134.581C62.6793 133.558 67.4876 130.012 69.6701 126.772C71.8868 123.498 71.7504 121.077 71.3411 120.975C70.7955 120.77 69.8748 122.68 67.4194 124.794C65.0323 126.874 60.8037 128.989 55.552 129.193C53.8469 129.261 52.0054 129.091 50.1639 128.682C49.7205 126.84 49.5159 125.033 49.5841 123.294C49.6864 118.042 51.6985 113.779 53.7446 111.358C55.7907 108.868 57.7004 107.948 57.4617 107.368C57.3594 106.925 54.9381 106.856 51.6985 109.141C48.4929 111.358 45.0486 116.234 44.1278 122.816C43.6504 126.26 43.9232 130.08 45.0486 133.865Z" fill="#BCE2CD"/>
<path d="M10.5715 81.0075C11.1512 77.1199 12.4812 73.5391 14.3909 70.5723C17.9716 65.0137 23.1551 62.0127 26.9745 61.3307C30.8962 60.6145 33.0446 61.7058 32.9423 62.1491C32.9082 62.7289 30.7939 62.7971 27.8952 64.1953C25.0307 65.5252 21.3818 68.5603 19.097 73.2663C18.3467 74.8009 17.767 76.5401 17.3919 78.4157C18.8923 79.5411 20.4951 80.4618 22.0638 81.1098C26.9063 83.1218 31.6465 82.9854 34.6815 82.0987C37.7848 81.2462 39.3876 79.8821 39.8309 80.2913C40.1719 80.5641 39.2853 82.8149 35.8751 84.8269C32.5331 86.873 26.7017 88.0324 20.3246 86.2591C16.9485 85.3725 13.5725 83.531 10.5715 81.0075Z" fill="#BCE2CD"/>
<path d="M92.4161 166.262C90.063 163.091 88.4602 159.612 87.7441 156.202C86.3459 149.723 87.8805 143.96 90.1312 140.754C92.382 137.48 94.6668 136.73 94.9055 137.105C95.2806 137.549 93.8142 139.083 92.7912 142.118C91.6999 145.085 91.2907 149.825 92.9958 154.77C93.5414 156.407 94.3599 158.044 95.417 159.612C97.2926 159.34 99.0659 158.896 100.635 158.214C105.477 156.202 108.751 152.792 110.251 149.996C111.82 147.199 112.025 145.085 112.604 145.085C113.048 145.017 114.003 147.233 113.048 151.087C112.127 154.872 108.819 159.851 103.056 163.091C100.021 164.83 96.3378 165.921 92.4161 166.262Z" fill="#BCE2CD"/>
<path d="M42.8319 49.8724C48.9362 53.2485 55.1427 57.0679 60.258 62.2173C59.8147 69.4469 57.7003 76.4378 55.3473 83.0194C54.3243 85.8499 53.3012 88.6462 52.3122 91.4085C55.245 91.6472 58.2119 91.8177 61.2128 92.0223C68.1696 92.5338 75.4333 93.3864 82.2196 95.9099C84.8795 102.662 85.8685 109.892 86.5164 116.848C86.6869 118.997 86.8574 121.111 87.062 123.226C89.1082 122.646 91.1202 122.032 93.2004 121.418C99.8844 119.474 107.012 117.803 114.275 117.837C119.084 123.26 122.528 129.705 125.529 136.014C126.791 138.742 128.053 141.436 129.314 144.096C131.565 142.186 133.782 140.208 136.032 138.23C141.318 133.661 147.047 129.159 153.629 126.124C160.279 129.023 166.11 133.456 171.464 137.889C173.101 139.288 174.738 140.652 176.341 142.016C177.364 140.174 178.387 138.299 179.41 136.423C182.786 130.319 186.605 124.112 191.755 118.963C198.984 119.406 205.975 121.52 212.557 123.873C215.387 124.897 218.184 125.92 220.946 126.909C221.185 123.976 221.355 121.009 221.56 118.008C222.071 111.051 222.924 103.787 225.447 97.0012C232.2 94.3412 239.429 93.3523 246.386 92.7044C248.534 92.5339 250.649 92.3633 252.763 92.1587C252.183 90.1467 251.569 88.1006 250.956 86.0204C249.046 79.3023 247.341 72.2091 247.375 64.9454C252.797 60.1371 259.242 56.6928 265.551 53.6918C268.279 52.43 270.973 51.1683 273.633 49.9065C271.724 47.6558 269.746 45.4392 267.768 43.1543C263.198 37.8686 258.697 32.1395 255.662 25.5578C258.56 18.9079 262.994 13.0765 267.427 7.72249C268.825 6.08561 270.189 4.44872 271.553 2.84593C269.712 1.82288 267.836 0.799819 265.96 -0.223237C259.856 -3.59932 253.65 -7.45283 248.534 -12.5681C248.978 -19.7977 251.092 -26.7886 253.445 -33.3703C254.468 -36.2007 255.491 -38.9971 256.48 -41.7593C253.547 -41.998 250.581 -42.1685 247.58 -42.3731C240.623 -42.8847 233.359 -43.7372 226.573 -46.2608C223.913 -53.0129 222.924 -60.2425 222.276 -67.1993C222.105 -69.3477 221.935 -71.462 221.73 -73.5764C219.684 -72.9966 217.672 -72.3828 215.592 -71.769C208.908 -69.8593 201.781 -68.1542 194.517 -68.1883C189.709 -73.6105 186.264 -80.0557 183.263 -86.3646C182.002 -89.0927 180.74 -91.7868 179.478 -94.4467C177.227 -92.537 175.011 -90.5591 172.76 -88.5812C167.474 -84.0115 161.745 -79.5101 155.163 -76.475C148.514 -79.3737 142.682 -83.7728 137.328 -88.2402C135.691 -89.6383 134.054 -91.0024 132.452 -92.3665C131.429 -90.525 130.406 -88.6494 129.382 -86.7738C126.006 -80.6696 122.187 -74.463 117.038 -69.3477C109.808 -69.7911 102.817 -71.9054 96.2355 -74.2584C93.405 -75.2815 90.6086 -76.3045 87.8464 -77.2935C87.6077 -74.3607 87.4372 -71.3938 87.2326 -68.3929C86.721 -61.4361 85.8685 -54.1724 83.3449 -47.3861C76.5928 -44.7262 69.3632 -43.7372 62.4064 -43.0893C60.258 -42.9188 58.1437 -42.7483 56.0294 -42.5437C56.6091 -40.5317 57.2229 -38.4855 57.8367 -36.4053C59.7465 -29.6873 61.4515 -22.5941 61.4174 -15.3304C55.9952 -10.522 49.55 -7.07772 43.2411 -4.07675C40.513 -2.81498 37.8189 -1.55322 35.159 -0.291455C37.0687 1.95927 39.0466 4.17589 41.0245 6.42662C45.5942 11.7124 50.0956 17.4415 53.1307 24.0573C50.232 30.7072 45.7988 36.5386 41.3655 41.8926C39.9674 43.5295 38.6033 45.1663 37.2392 46.7691C39.0807 47.8263 40.9563 48.8494 42.8319 49.8724ZM39.524 -4.96339C45.9693 -8.40768 52.4828 -12.0566 57.7004 -16.9332C57.8709 -24.0946 56.3363 -31.3924 54.6653 -38.4855C54.1879 -40.4294 53.7104 -42.3731 53.2671 -44.317C55.245 -44.6239 57.2229 -44.8967 59.2008 -45.1354C66.4304 -46.1244 73.7964 -47.352 80.4122 -50.1143C83.038 -56.7641 84.1293 -64.1642 84.9818 -71.3938C85.2888 -74.2243 85.6298 -77.0889 86.039 -79.8852C88.7671 -79.135 91.4953 -78.3165 94.2234 -77.464C101.214 -75.3497 108.41 -73.3377 115.537 -73.0648C120.721 -78.0096 124.813 -84.2502 128.632 -90.4568C129.655 -92.1619 130.712 -93.867 131.77 -95.538C133.372 -94.3444 134.975 -93.1508 136.544 -91.9232C142.375 -87.524 148.445 -83.159 155.061 -80.4308C161.643 -83.2613 167.611 -87.7286 173.34 -92.2642C175.591 -94.0375 177.807 -95.8108 180.092 -97.5159C181.49 -95.0605 182.82 -92.537 184.15 -90.0135C187.594 -83.5682 191.243 -77.0547 196.12 -71.8372C203.281 -71.6326 210.579 -73.2012 217.672 -74.8722C219.616 -75.3497 221.56 -75.8271 223.504 -76.2363C223.811 -74.2584 224.083 -72.2805 224.322 -70.3026C225.311 -63.073 226.539 -55.707 229.301 -49.0912C235.951 -46.4654 243.351 -45.3741 250.581 -44.5216C253.411 -44.2146 256.276 -43.8736 259.072 -43.4644C258.322 -40.7363 257.503 -38.0081 256.617 -35.28C254.502 -28.2891 252.49 -21.0936 252.217 -13.9322C257.128 -8.7487 263.403 -4.65648 269.609 -0.837066C271.314 0.18599 273.02 1.24315 274.691 2.30031C273.497 3.9031 272.303 5.50589 271.076 7.07457C266.677 12.906 262.312 18.9761 259.583 25.5919C262.414 32.1735 266.881 38.1414 271.417 43.8705C273.224 46.0871 274.963 48.3378 276.668 50.6226C274.213 52.0208 271.69 53.3849 269.132 54.6808C262.687 58.1251 256.173 61.774 250.956 66.6505C250.751 73.8119 252.32 81.1097 253.991 88.2029C254.468 90.1467 254.946 92.0905 255.355 94.0343C253.377 94.3413 251.399 94.6141 249.421 94.8528C242.191 95.8758 234.825 97.0694 228.21 99.8317C225.584 106.482 224.493 113.882 223.64 121.111C223.333 123.942 222.992 126.806 222.583 129.603C219.855 128.852 217.127 128.034 214.398 127.147C207.408 125.033 200.212 123.021 193.051 122.748C187.867 127.693 183.775 133.934 179.956 140.14C178.932 141.845 177.875 143.55 176.818 145.221C175.215 144.028 173.613 142.834 172.044 141.606C166.212 137.207 160.142 132.842 153.527 130.148C146.945 132.979 140.977 137.446 135.248 141.947C133.031 143.755 130.781 145.494 128.496 147.199C127.098 144.744 125.768 142.22 124.438 139.663C120.993 133.217 117.345 126.704 112.468 121.486C105.307 121.282 98.0087 122.85 90.9156 124.521C88.9717 124.999 87.0279 125.476 85.0841 125.885C84.7772 123.942 84.5044 121.93 84.2657 119.952C83.2426 112.722 82.0491 105.356 79.2868 98.7404C72.637 96.0804 65.2368 95.0233 58.0072 94.1707C55.1427 93.8638 52.3122 93.5228 49.5159 93.1136C50.2661 90.3854 51.0846 87.6573 51.9712 84.9291C54.0855 77.9382 56.0976 70.7427 56.3704 63.5813C51.4597 58.3979 45.185 54.3056 38.9784 50.4862C37.2733 49.4632 35.5682 48.406 33.8972 47.3489C35.0567 45.7461 36.2844 44.1433 37.512 42.5746C41.9112 36.7432 46.2762 30.6731 48.9703 24.0573C46.1398 17.4756 41.6725 11.5078 37.1369 5.77869C35.3295 3.52797 33.5903 1.27723 31.8852 -0.973492C34.477 -2.30347 37.0005 -3.63342 39.524 -4.96339Z" fill="#BCE2CD"/>
<path d="M25.44 49.0199C25.3377 45.9848 24.4169 43.359 22.9505 43.1885C21.0067 42.9498 18.8583 46.7351 17.8012 50.4522C20.1201 53.5213 23.4962 56.2495 25.2354 55.3628C26.5312 54.6467 26.463 51.8845 25.44 49.0199Z" fill="#BCE2CD"/>
<path d="M80.3099 133.115C78.0932 131.035 75.5697 129.842 74.4443 130.762C72.9097 131.99 74.0692 136.15 75.9448 139.526C79.7642 140.038 84.0952 139.595 84.6408 137.753C85.0841 136.355 83.0721 134.445 80.3099 133.115Z" fill="#BCE2CD"/>
<path d="M24.8942 -2.40556C25.3376 1.41385 24.3827 5.33556 22.6094 5.57427C20.4951 5.84709 18.0739 1.37975 17.0508 -2.57607C16.9485 -2.98529 16.8462 -3.49682 16.778 -4.11065C17.0849 -4.62218 17.3918 -5.06551 17.6305 -5.40653C20.1541 -8.61211 24.1781 -11.7495 25.9855 -10.6241C27.5542 -9.66926 26.8039 -5.71344 24.8942 -2.40556Z" fill="#BCE2CD"/>
<path d="M43.5481 97.1718C46.5491 99.5589 48.6634 102.969 47.5721 104.401C46.2763 106.106 41.3997 104.64 37.8872 102.56C37.5462 102.355 37.1029 102.048 36.6254 101.673C36.489 101.059 36.3867 100.548 36.3185 100.139C35.8411 96.0805 36.489 91.0334 38.5351 90.5219C40.3084 90.1468 42.5933 93.4547 43.5481 97.1718Z" fill="#BCE2CD"/>
<path d="M127.166 154.361C130.985 153.917 134.873 154.872 135.146 156.646C135.419 158.76 130.951 161.181 126.995 162.204C126.586 162.306 126.075 162.409 125.461 162.477C124.949 162.17 124.506 161.863 124.165 161.624C120.959 159.101 117.822 155.077 118.947 153.269C119.902 151.701 123.824 152.417 127.166 154.361Z" fill="#BCE2CD"/>
<path d="M80.0711 38.7893C81.1624 38.1414 81.7762 37.4934 81.708 36.8796C81.6057 35.8565 79.1504 35.1063 75.6038 35.1404C72.0572 35.0722 67.5558 36.027 63.6682 37.5616C61.3151 38.4483 57.3593 40.6649 53.1307 43.8364C58.2118 45.2345 62.7133 45.8825 65.2027 45.8484C69.3973 45.8825 73.9328 45.1322 77.2066 43.8023C80.5145 42.5746 82.5265 40.9377 82.2537 39.9829C82.1514 39.369 81.3329 38.9939 80.0711 38.7893Z" fill="#BCE2CD"/>
<path d="M111.718 87.248C111.99 86.0204 112.025 85.1337 111.547 84.7586C110.763 84.1107 108.478 85.3042 106.023 87.8278C103.465 90.2831 100.976 94.1366 99.3046 97.9901C98.2815 100.275 97.0538 104.64 96.2695 109.858C100.873 107.266 104.488 104.538 106.227 102.73C109.194 99.7975 111.888 96.0463 113.252 92.7725C114.684 89.567 114.991 87.0093 114.105 86.4978C113.559 86.225 112.741 86.5319 111.718 87.248Z" fill="#BCE2CD"/>
<path d="M80.344 9.25716C81.0942 9.76869 81.5035 10.2802 81.4693 10.7576C81.4011 11.7807 78.9458 12.5991 75.3992 12.6333C71.8867 12.7697 67.3512 11.883 63.4295 10.4166C60.7695 9.46178 55.9953 6.87004 51.0846 3.08473C57.0865 1.61835 62.5087 1.17502 65.3392 1.34553C69.5337 1.58424 74.001 2.60729 77.1725 4.14188C80.3781 5.60826 82.2878 7.31335 81.9468 8.26821C81.8445 8.81384 81.2647 9.08665 80.344 9.25716Z" fill="#BCE2CD"/>
<path d="M91.0179 66.1731C91.9046 66.0026 92.5525 66.0708 92.8935 66.4459C93.5415 67.2303 92.382 69.5151 89.9267 72.0386C87.5395 74.6304 83.7201 77.2221 79.9007 78.9613C77.3431 80.1549 72.1255 81.6895 65.9872 82.5079C69.1927 77.2221 72.7052 73.0617 74.8537 71.2202C77.991 68.4238 81.8786 66.0026 85.2206 64.8431C88.5285 63.6155 91.0861 63.4791 91.5295 64.3998C91.7341 64.809 91.5295 65.4229 91.0179 66.1731Z" fill="#BCE2CD"/>
<path d="M27.9294 48.5423C30.0778 45.9846 33.6244 42.1652 36.2844 37.8343C39.1148 33.5033 40.9222 28.7632 41.2291 26.5125C41.3655 25.7622 41.3996 24.9779 41.3655 24.1935C41.3655 23.4433 41.2973 22.6589 41.195 21.9087C40.854 19.658 38.9443 14.9519 36.0457 10.6892C33.2152 6.32415 29.5322 2.50474 27.3497 -0.0187998C29.1912 2.19782 31.3737 7.07439 32.3285 11.8828C33.3857 16.6911 33.3175 21.2608 33.5903 23.1364C33.6585 23.5115 33.7267 23.9207 33.829 24.2958C33.7608 24.7051 33.6926 25.0802 33.6244 25.4553C33.3857 27.3309 33.5221 31.9006 32.5673 36.743C31.6806 41.415 29.7027 46.2574 27.9294 48.5423C30.4188 50.0427 34.0336 53.8281 36.5231 57.8862C39.1489 62.0466 40.6835 66.3434 41.6043 68.0144C41.8089 68.3554 42.0135 68.6965 42.2181 69.0375C42.2863 69.4467 42.3545 69.8218 42.4227 70.197C42.8319 72.0385 44.537 76.2671 45.3213 81.1436C46.1398 85.952 45.9011 91.306 44.9803 94.0342C46.0716 90.8968 48.1518 85.9861 49.209 80.905C50.3343 75.8579 50.4366 70.7767 49.9592 68.5601C49.8228 67.8098 49.5841 67.0596 49.3113 66.3434C49.0385 65.6273 48.7315 64.9112 48.3564 64.2632C47.2652 62.2853 43.855 58.5341 39.6264 55.4991C35.5341 52.464 30.8622 50.1792 27.9294 48.5423Z" fill="#BCE2CD"/>
<path d="M81.7422 131.035C81.4353 127.693 81.2306 122.509 80.0712 117.53C78.9799 112.483 76.9338 107.846 75.5697 106.038C75.1264 105.424 74.6149 104.845 74.0351 104.299C73.4895 103.753 72.9098 103.242 72.2618 102.798C70.4203 101.468 65.7484 99.4906 60.6672 98.5016C55.586 97.4104 50.2661 97.3421 46.9242 97.0693C49.7887 97.308 54.8017 99.2519 58.8598 101.98C63.0202 104.64 66.1917 107.914 67.7263 109.039C68.0332 109.244 68.3742 109.482 68.7153 109.687C68.954 110.028 69.1586 110.335 69.3973 110.676C70.5568 112.176 73.8647 115.314 76.6269 119.406C79.3551 123.328 81.3671 128.17 81.7422 131.035C84.5726 130.353 89.7902 130.455 94.4281 131.58C99.2364 132.638 103.363 134.615 105.17 135.161C105.545 135.263 105.92 135.366 106.33 135.434C106.637 135.673 106.978 135.911 107.284 136.116C108.887 137.139 113.082 138.912 117.072 141.811C121.062 144.641 124.676 148.563 125.972 151.155C124.54 148.154 122.528 143.209 119.663 138.878C116.901 134.479 113.389 130.83 111.479 129.637C110.831 129.227 110.149 128.852 109.433 128.545C108.751 128.204 108.001 127.932 107.25 127.761C105.068 127.113 99.9867 126.908 94.8714 127.727C89.8925 128.409 84.9478 130.114 81.7422 131.035Z" fill="#BCE2CD"/>
<path d="M71.8186 23.9209C70.284 24.8416 68.7494 25.7965 67.2489 26.8195C59.3714 31.9348 52.0054 38.1755 47.8791 41.381C52.7897 37.6298 61.2811 33.0943 69.6361 29.9569C77.8546 26.7513 85.8004 24.9098 89.4152 23.7504C85.8004 22.6591 77.8205 20.954 69.5338 17.919C61.1447 14.9521 52.551 10.553 47.5722 6.90405C51.7667 10.0414 59.235 16.1457 67.2148 21.1245C68.7153 22.1135 70.284 23.0342 71.8186 23.9209Z" fill="#BCE2CD"/>
<path d="M95.3488 82.5761C94.9055 84.2812 94.4963 86.0545 94.1552 87.8619C92.2114 97.0694 91.4271 106.652 90.7451 111.87C91.5635 105.731 94.3599 96.5238 98.0429 88.4075C101.589 80.3254 105.886 73.4027 107.625 70.0266C104.284 71.834 97.4631 76.2672 89.4492 79.9502C81.4353 83.7697 72.2618 86.7706 66.1235 87.6914C71.3411 86.9411 80.8896 85.9863 90.063 83.8379C91.8704 83.4968 93.6437 83.0535 95.3488 82.5761Z" fill="#BCE2CD"/>
<path d="M77.7522 55.6357C76.013 55.3288 74.2056 54.9877 72.4323 54.6126C63.2248 52.7029 54.1196 49.5655 49.1066 48.0651C55.0404 49.7702 64.623 50.9296 73.5236 50.8273C82.356 50.8273 90.404 49.6679 94.1893 49.4633C91.1884 51.7822 84.368 56.2495 77.7863 62.115C71.0341 67.9124 64.623 75.1079 61.3151 80.3254C64.1115 75.8581 68.8516 67.5031 74.4784 59.9666C75.5356 58.432 76.661 56.9998 77.7522 55.6357Z" fill="#BCE2CD"/>
<path d="M121.982 100.787C120.55 101.81 119.05 102.833 117.515 103.822C109.637 108.971 101.01 113.2 96.3718 115.689C101.794 112.688 109.365 106.754 115.571 100.377C121.812 94.1366 126.688 87.6232 129.212 84.7927C128.734 88.5439 127.064 96.5238 126.552 105.322C125.87 114.189 126.45 123.839 127.78 129.875C126.586 124.76 124.028 115.484 122.698 106.175C122.392 104.367 122.153 102.56 121.982 100.787Z" fill="#BCE2CD"/>
</g>
</g>
<defs>
<clipPath id="clip0_760_3925">
<rect width="166" height="144" fill="white" transform="translate(144) rotate(90)"/>
</clipPath>
</defs>
</svg>
