<svg viewBox="0 0 100 100" fill="none" xmlns="http://www.w3.org/2000/svg"><path d="M22.6 43.687c-6.247 4.944-11.574 18.042-12.59 27.387-.186 1.718 2.179 2.89 3.111 1.542l4.622-7.197a33.598 33.598 0 0 1 4.535-5.256c3.507-7.532 7.392-14.258 11.68-20.198-3.495-.259-7.446.627-11.359 3.722h.001ZM35.848 82.908l-7.033 4.868c-1.314.977-.06 3.302 1.649 3.056 9.305-1.339 22.212-7.115 26.936-13.53 2.95-4.006 3.701-7.975 3.329-11.452-5.893 4.616-12.541 8.79-19.899 12.472a33.665 33.665 0 0 1-4.982 4.586Z" fill="#073682"/><path d="M24.587 62.3c-.329.719 2.871 4.113 6.122 7.294 3.968 3.882 7.514 6.678 8.204 6.337 23.664-11.697 40.491-28.645 47.49-50.48v-.003L73.574 13.055C51.386 20.969 35.692 38.034 24.587 62.3Z" fill="#43A2E8"/><path d="M84.309 10.084c-3.728.777-7.321 1.756-10.735 2.972L86.403 25.45l.002.002a74.189 74.189 0 0 0 2.623-10.876c.437-2.712-2.028-5.05-4.718-4.49h-.001Z" fill="#073682"/><path d="M62.567 45.305a8.119 8.119 0 1 0 0-16.238 8.119 8.119 0 0 0 0 16.238Z" fill="#fff"/></svg>